<svg id="Layer_1" data-name="Layer 1" xmlns="http://www.w3.org/2000/svg" viewBox="0 0 150 150"><defs><style>.cls-1{fill:#fff;}</style></defs><path d="M145,72.52a70.2,70.2,0,0,1-140,5C5,78.25,5,79,5,79.8a70.21,70.21,0,0,0,140.41,0A72.86,72.86,0,0,0,145,72.52Z"/><path class="cls-1" d="M74.84,139.91A69.71,69.71,0,1,1,144.55,70.2c0,.6,0,1.2,0,1.79l0,.52a69.7,69.7,0,0,1-69.65,67.4Z"/><path d="M74.84,1a69.28,69.28,0,0,1,69.21,69.2c0,.61,0,1.22-.05,1.82v.47A69.19,69.19,0,1,1,74.84,1m0-1A70.2,70.2,0,0,0,4.64,70.2,72.86,72.86,0,0,0,5,77.48a70.2,70.2,0,0,0,140-5c0-.77.06-1.54.06-2.32A70.21,70.21,0,0,0,74.84,0Z"/></svg>