<svg id="Layer_1" data-name="Layer 1" xmlns="http://www.w3.org/2000/svg" viewBox="0 0 300 300"><defs><style>.cls-1{fill:#fff;}</style></defs><path d="M249.09,32.19a95.54,95.54,0,0,1-13.8-20.55,14.73,14.73,0,0,1,5.92,6.53A94.83,94.83,0,0,0,249.09,32.19Z"/><path d="M236.63,13.16a14,14,0,0,1,4.12,5.22c1.12,2.46,2.36,4.89,3.69,7.26a94.55,94.55,0,0,1-7.81-12.48m-2.45-2.66a96,96,0,0,0,18.66,26.42c.4.41.83.79,1.24,1.2A96.29,96.29,0,0,1,241.66,18a15.15,15.15,0,0,0-7.48-7.47Z"/><path d="M284.62,299.5a14,14,0,0,1-2.14-.16,320.46,320.46,0,0,1-178-87.49,321.1,321.1,0,0,0,169.65,79.43,15.91,15.91,0,0,0,18.16-15.9v-204a15.86,15.86,0,0,0-.57-4.17,14.9,14.9,0,0,1,7.82,13.23v204a15.06,15.06,0,0,1-4.41,10.68,14.74,14.74,0,0,1-10.47,4.38Z"/><path d="M292.43,68.26A14.44,14.44,0,0,1,299,80.47v204A14.49,14.49,0,0,1,284.62,299a14.28,14.28,0,0,1-2.06-.15,321.36,321.36,0,0,1-96.83-30.15,320.92,320.92,0,0,1-61-39.42,322.27,322.27,0,0,0,51.84,32.15A323.12,323.12,0,0,0,274,291.77a16.89,16.89,0,0,0,2.35.17,16.2,16.2,0,0,0,11.53-4.82,16.52,16.52,0,0,0,4.85-11.74v-204a16.11,16.11,0,0,0-.32-3.15m-1.56-2a16,16,0,0,1,.88,5.12v204a15.51,15.51,0,0,1-15.38,15.56,15.13,15.13,0,0,1-2.21-.16A322.39,322.39,0,0,1,91.48,198.85c-2.11-2.11-4.16-4.25-6.19-6.41q6.92,7.91,14.44,15.47a322.39,322.39,0,0,0,182.68,91.93,15.13,15.13,0,0,0,2.21.16A15.51,15.51,0,0,0,300,284.44v-204a15.39,15.39,0,0,0-9.13-14.17Z"/><path class="cls-1" d="M276.37,290.44a15.4,15.4,0,0,1-2.14-.15,320.64,320.64,0,0,1-182.4-91.8c-1.87-1.87-3.83-3.9-6.18-6.39A323.15,323.15,0,0,1,.67,17.67,14.87,14.87,0,0,1,4.12,5.73,15,15,0,0,1,15.51.5h203.9A14.88,14.88,0,0,1,233,9.12c.15.33.31.66.47,1l.3.6a96.3,96.3,0,0,0,18.75,26.56l.75.73.51.47A95.94,95.94,0,0,0,282.42,57.7a14.65,14.65,0,0,1,8,8.76,15.22,15.22,0,0,1,.86,5v204a15,15,0,0,1-4.41,10.68,14.74,14.74,0,0,1-10.47,4.38Z"/><path d="M219.41,1A14.37,14.37,0,0,1,232.5,9.32c.16.34.32.68.49,1l.29.59a97.11,97.11,0,0,0,18.85,26.7l.77.74.49.46a96.53,96.53,0,0,0,28.83,19.32,14.19,14.19,0,0,1,7.7,8.47,14.77,14.77,0,0,1,.83,4.79v204a14.5,14.5,0,0,1-4.26,10.32,14.2,14.2,0,0,1-12.18,4.09,321.08,321.08,0,0,1-96.83-30.15,322.44,322.44,0,0,1-85.29-61.5c-1.89-1.89-3.85-3.92-6.18-6.38A322.69,322.69,0,0,1,1.16,17.59,14.5,14.5,0,0,1,15.51,1h203.9m0-1H15.51A15.49,15.49,0,0,0,.17,17.74a324.32,324.32,0,0,0,85.12,174.7c2,2.16,4.08,4.3,6.19,6.41a322.39,322.39,0,0,0,182.68,91.93,15.13,15.13,0,0,0,2.21.16,15.51,15.51,0,0,0,15.38-15.56v-204a16,16,0,0,0-.88-5.12,15.13,15.13,0,0,0-8.25-9.05,95.85,95.85,0,0,1-28.54-19.12c-.41-.41-.84-.79-1.24-1.2A96,96,0,0,1,234.18,10.5c-.26-.53-.52-1.06-.77-1.59a15.35,15.35,0,0,0-14-8.91Z"/></svg>