<svg id="Layer_1" data-name="Layer 1" xmlns="http://www.w3.org/2000/svg" viewBox="0 0 300 300"><defs><style>.cls-1{fill:#fff;}</style></defs><path d="M23.63,299.5a14.9,14.9,0,0,1-13.63-9,15.34,15.34,0,0,0,5.4,1,17.17,17.17,0,0,0,2.26-.16,321.63,321.63,0,0,0,183-92.08A323.75,323.75,0,0,0,292.07,17.82a15.36,15.36,0,0,0-.36-6.4,15,15,0,0,1,7.62,15.31,322.75,322.75,0,0,1-91.16,180.82,320.56,320.56,0,0,1-182.4,91.79A14,14,0,0,1,23.63,299.5Z"/><path d="M292.46,12.45a14.51,14.51,0,0,1,6.38,14.2,323.76,323.76,0,0,1-30.24,96,323.84,323.84,0,0,1-60.79,84.58,322.44,322.44,0,0,1-85.29,61.5,321.36,321.36,0,0,1-96.83,30.15A14.28,14.28,0,0,1,11,291.31a15.83,15.83,0,0,0,4.44.63,16.49,16.49,0,0,0,2.33-.17,323.26,323.26,0,0,0,97.43-30.34A324.81,324.81,0,0,0,201,199.55a325.68,325.68,0,0,0,61.16-85.09,326,326,0,0,0,30.43-96.57,16,16,0,0,0-.11-5.44m-1.57-2a15.21,15.21,0,0,1,.69,7.29,324.36,324.36,0,0,1-91.31,181.11A322.39,322.39,0,0,1,17.59,290.78a14.87,14.87,0,0,1-2.19.16,15.16,15.16,0,0,1-6.29-1.37A15.48,15.48,0,0,0,23.63,300a15.13,15.13,0,0,0,2.21-.16,322.39,322.39,0,0,0,182.68-91.93A324.39,324.39,0,0,0,299.83,26.8a15.45,15.45,0,0,0-8.94-16.35Z"/><path class="cls-1" d="M15.4,290.44a14.58,14.58,0,0,1-6.08-1.33A15.11,15.11,0,0,1,.5,275.38v-204A14.85,14.85,0,0,1,9.33,57.7,95.77,95.77,0,0,0,39.27,37.27,96.27,96.27,0,0,0,58.79,9.12,14.88,14.88,0,0,1,72.34.5h203.9a15,15,0,0,1,14.18,10.11,14.64,14.64,0,0,1,.66,7.06,322.75,322.75,0,0,1-91.16,180.82,320.61,320.61,0,0,1-182.4,91.8A15.11,15.11,0,0,1,15.4,290.44Z"/><path d="M276.24,0V1A14.54,14.54,0,0,1,290,10.77a14.28,14.28,0,0,1,.64,6.82,323.91,323.91,0,0,1-30.24,96,324.15,324.15,0,0,1-60.78,84.57,322.65,322.65,0,0,1-85.3,61.5,321.08,321.08,0,0,1-96.83,30.15,13.9,13.9,0,0,1-2,.15,14.08,14.08,0,0,1-5.87-1.28A14.64,14.64,0,0,1,1,275.38v-204A14.37,14.37,0,0,1,9.53,58.15,96.4,96.4,0,0,0,39.62,37.63,96.9,96.9,0,0,0,59.25,9.32,14.37,14.37,0,0,1,72.34,1h203.9V0m0,0H72.34a15.35,15.35,0,0,0-14,8.91,96.17,96.17,0,0,1-19.42,28A95.71,95.71,0,0,1,9.13,57.24,15.39,15.39,0,0,0,0,71.41v204a15.59,15.59,0,0,0,9.11,14.19,15.16,15.16,0,0,0,6.29,1.37,14.87,14.87,0,0,0,2.19-.16,322.39,322.39,0,0,0,182.68-91.93A324.36,324.36,0,0,0,291.58,17.74a15.21,15.21,0,0,0-.69-7.29A15.52,15.52,0,0,0,276.24,0Z"/></svg>