<?xml-stylesheet type="text/css" href="../css/main.css" ?>

<svg id="top" data-name="Top Button" xmlns="http://www.w3.org/2000/svg" viewBox="0 0 300 300"><path d="M23.69,299.5A15,15,0,0,1,10,290.62a15.93,15.93,0,0,0,5.44.95H217.72a15.88,15.88,0,0,0,14.75-9.81,93.78,93.78,0,0,1,20.81-30.94,94.72,94.72,0,0,1,29.57-19.93,15.63,15.63,0,0,0,9.42-14.43V15.35a15.62,15.62,0,0,0-.54-4.09,14.88,14.88,0,0,1,7.77,13V225.39a14.63,14.63,0,0,1-8.81,13.51,96.17,96.17,0,0,0-50.91,51.41A14.89,14.89,0,0,1,226,299.5Z"/><path d="M292.48,12.29a14.37,14.37,0,0,1,6.52,12V225.39a14.12,14.12,0,0,1-8.51,13.05,96.49,96.49,0,0,0-30,20.24,95.4,95.4,0,0,0-21.13,31.44A14.4,14.4,0,0,1,226,299H23.69A14.47,14.47,0,0,1,11,291.45a16.35,16.35,0,0,0,4.47.62H217.72A16.38,16.38,0,0,0,232.93,282a93.47,93.47,0,0,1,20.7-30.78,94.49,94.49,0,0,1,29.42-19.82,16.13,16.13,0,0,0,9.72-14.89V15.35a16.44,16.44,0,0,0-.29-3.06m-1.58-2a15.11,15.11,0,0,1,.87,5.06V216.46a15.16,15.16,0,0,1-9.12,14A95.55,95.55,0,0,0,232,281.57a15.44,15.44,0,0,1-14.29,9.5H15.46a15.52,15.52,0,0,1-6.34-1.35A15.43,15.43,0,0,0,23.69,300H226a15.44,15.44,0,0,0,14.28-9.5,95.61,95.61,0,0,1,50.65-51.14,15.17,15.17,0,0,0,9.11-14V24.28a15.34,15.34,0,0,0-9.1-14Z"/><path class="btn-fill" d="M15.46,290.57A14.94,14.94,0,0,1,.64,273.64C10.33,204.05,42,141,92.22,91.16A321.53,321.53,0,0,1,274.28.65,15.4,15.4,0,0,1,276.42.5a14.88,14.88,0,0,1,14,10,14.63,14.63,0,0,1,.84,4.9V216.46A14.63,14.63,0,0,1,282.46,230a95.82,95.82,0,0,0-29.89,20.14,94.8,94.8,0,0,0-21,31.27,14.9,14.9,0,0,1-13.83,9.19Z"/><path d="M276.42,1A14.38,14.38,0,0,1,290,10.62a14.08,14.08,0,0,1,.81,4.73V216.46a14.12,14.12,0,0,1-8.51,13,96.61,96.61,0,0,0-51.18,51.68,14.39,14.39,0,0,1-13.36,8.88H15.46A14.44,14.44,0,0,1,1.14,273.71,317.36,317.36,0,0,1,92.57,91.52,322.24,322.24,0,0,1,274.35,1.15,14.41,14.41,0,0,1,276.42,1m0-1a15,15,0,0,0-2.21.16A323.26,323.26,0,0,0,91.87,90.8,318.42,318.42,0,0,0,.15,273.57a15.42,15.42,0,0,0,15.31,17.5H217.72a15.44,15.44,0,0,0,14.29-9.5,95.55,95.55,0,0,1,50.64-51.14,15.16,15.16,0,0,0,9.12-14V15.35a15.11,15.11,0,0,0-.87-5.06A15.42,15.42,0,0,0,276.42,0Z"/></svg>