<svg id="Layer_1" data-name="Layer 1" xmlns="http://www.w3.org/2000/svg" viewBox="0 0 300 300"><defs><style>.cls-1{fill:#fff;}</style></defs><path d="M40.31,252.67A95.45,95.45,0,0,0,17.54,238.9,14.52,14.52,0,0,1,10,231.37a94.74,94.74,0,0,1,28.47,19.45C39.1,251.42,39.71,252,40.31,252.67Z"/><path d="M11.09,232.4a94.08,94.08,0,0,1,23.12,15.09,96.13,96.13,0,0,0-16.47-9.05,13.93,13.93,0,0,1-6.65-6m-2-2a15,15,0,0,0,8.23,8.93,95.61,95.61,0,0,1,28.52,18.89,96.73,96.73,0,0,0-7-7.79,95.61,95.61,0,0,0-29.72-20Z"/><path d="M82.28,299.5a14.9,14.9,0,0,1-13.71-8.9,16,16,0,0,0,5.47,1H276.31a16,16,0,0,0,12.06-5.48,15.82,15.82,0,0,0,3.74-12.59,317.91,317.91,0,0,0-60.65-147.23,316.19,316.19,0,0,1,67.9,156.3,14.9,14.9,0,0,1-14.82,16.93Z"/><path d="M246.69,147.53a315.5,315.5,0,0,1,52.17,135.11A14.4,14.4,0,0,1,284.54,299H82.28a14.41,14.41,0,0,1-12.74-7.56,16.3,16.3,0,0,0,4.5.63H276.31a16.4,16.4,0,0,0,16.3-18.64,318.32,318.32,0,0,0-45.92-125.9M214.35,106.1a318,318,0,0,1,77.27,167.47,15.4,15.4,0,0,1-15.31,17.5H74a15.66,15.66,0,0,1-6.42-1.4c.12.28.26.55.37.83A15.44,15.44,0,0,0,82.28,300H284.54a15.4,15.4,0,0,0,15.31-17.5,318.11,318.11,0,0,0-85.5-176.4Z"/><path class="cls-1" d="M74,290.57a15,15,0,0,1-6.21-1.36,14.78,14.78,0,0,1-7.61-7.83,94.73,94.73,0,0,0-14-23.44,96,96,0,0,0-7.07-7.83A95.66,95.66,0,0,0,9.31,230l-.1,0A14.65,14.65,0,0,1,.5,216.46V15.35A14.86,14.86,0,0,1,15.35.5a15.15,15.15,0,0,1,2.13.15A321.5,321.5,0,0,1,199.54,91.16c4.93,4.89,9.79,10,14.44,15.27a317.24,317.24,0,0,1,77.14,167.21,14.9,14.9,0,0,1-14.81,16.93Z"/><path d="M15.35,1a14.17,14.17,0,0,1,2.06.15,323.59,323.59,0,0,1,96.65,29.73,322,322,0,0,1,85.13,60.63c4.92,4.88,9.77,10,14.42,15.25a316.84,316.84,0,0,1,77,167,14.4,14.4,0,0,1-14.32,16.36H74a14.54,14.54,0,0,1-13.36-8.88,95.44,95.44,0,0,0-14-23.57,102.39,102.39,0,0,0-7.1-7.87,96.61,96.61,0,0,0-30-20.23H9.47a14.12,14.12,0,0,1-8.47-13V15.35A14.37,14.37,0,0,1,15.35,1m0-1A15.39,15.39,0,0,0,0,15.35V216.46a15.17,15.17,0,0,0,9.11,14h0a95.61,95.61,0,0,1,29.72,20,96.73,96.73,0,0,1,7,7.79,94.58,94.58,0,0,1,13.89,23.32,15.37,15.37,0,0,0,7.86,8.1,15.66,15.66,0,0,0,6.42,1.4H276.31a15.4,15.4,0,0,0,15.31-17.5A318,318,0,0,0,214.35,106.1q-6.93-7.81-14.45-15.3A323.32,323.32,0,0,0,17.56.16,15.13,15.13,0,0,0,15.35,0Z"/></svg>